<?xml version="1.0" encoding="utf-8"?>
<!-- Generator: Adobe Illustrator 19.0.1, SVG Export Plug-In . SVG Version: 6.00 Build 0)  -->
<svg version="1.1" id="Layer_1" xmlns="http://www.w3.org/2000/svg" xmlns:xlink="http://www.w3.org/1999/xlink" x="0px" y="0px"
	 viewBox="30 -19 76 76" style="enable-background:new 30 -19 76 76;" xml:space="preserve">
<style type="text/css">
	.st0{fill:#D01414;}
	.st1{fill:#FBEAEA;}
	.st2{fill:#F7D6D6;}
	.st3{fill:#F3C2C2;}
	.st4{fill:#EFADAD;}
	.st5{fill:#EB9999;}
	.st6{fill:#E78585;}
	.st7{fill:#E27070;}
	.st8{fill:#DE5C5C;}
	.st9{fill:#DA4747;}
	.st10{fill:#D63333;}
	.st11{fill:#D21F1F;}
</style>
<g>
	<path class="st0" d="M68.4-11.4h-0.8c-1.3,0-2.3,1-2.3,2.3V1.5c0,1.3,1,2.3,2.3,2.3h0.8c1.3,0,2.3-1,2.3-2.3V-9.1
		C70.7-10.4,69.6-11.4,68.4-11.4"/>
	<path class="st1" d="M81.7-7.8c-0.8,0-1.6,0.4-2,1.1l-5.3,9.2c-0.6,1.1-0.3,2.5,0.8,3.1L75.9,6c0.4,0.2,0.8,0.3,1.1,0.3
		c0.8,0,1.6-0.4,2-1.1L84.4-4c0.6-1.1,0.3-2.5-0.8-3.1l-0.7-0.4C82.5-7.7,82.1-7.8,81.7-7.8"/>
	<path class="st2" d="M92.2,2.3c-0.4,0-0.8,0.1-1.1,0.3L81.8,8c-1.1,0.6-1.5,2-0.8,3.1l0.4,0.7c0.4,0.7,1.2,1.1,2,1.1
		c0.4,0,0.8-0.1,1.1-0.3l9.2-5.3c1.1-0.6,1.5-2,0.8-3.1l-0.4-0.7C93.7,2.7,92.9,2.3,92.2,2.3"/>
	<path class="st3" d="M96.1,16.3H85.5c-1.3,0-2.3,1-2.3,2.3v0.8c0,1.3,1,2.3,2.3,2.3h10.6c1.3,0,2.3-1,2.3-2.3v-0.8
		C98.4,17.4,97.4,16.3,96.1,16.3"/>
	<path class="st4" d="M83.3,25.1c-0.8,0-1.6,0.4-2,1.1L81,26.9c-0.6,1.1-0.3,2.5,0.8,3.1l9.2,5.3c0.4,0.2,0.8,0.3,1.1,0.3
		c0.8,0,1.6-0.4,2-1.1l0.4-0.7c0.6-1.1,0.3-2.5-0.8-3.1l-9.2-5.3C84.1,25.2,83.7,25.1,83.3,25.1"/>
	<path class="st5" d="M77.1,31.7c-0.4,0-0.8,0.1-1.1,0.3l-0.7,0.4c-1.1,0.6-1.5,2-0.8,3.1l5.3,9.2c0.4,0.7,1.2,1.1,2,1.1
		c0.4,0,0.8-0.1,1.1-0.3l0.7-0.4c1.1-0.6,1.5-2,0.8-3.1L79,32.8C78.6,32.1,77.9,31.7,77.1,31.7"/>
	<path class="st6" d="M68.4,34.2h-0.8c-1.3,0-2.3,1-2.3,2.3v10.6c0,1.3,1,2.3,2.3,2.3h0.8c1.3,0,2.3-1,2.3-2.3V36.5
		C70.7,35.2,69.6,34.2,68.4,34.2"/>
	<path class="st7" d="M58.9,31.7c-0.8,0-1.6,0.4-2,1.1L51.6,42c-0.6,1.1-0.3,2.5,0.8,3.1l0.7,0.4c0.4,0.2,0.8,0.3,1.1,0.3
		c0.8,0,1.6-0.4,2-1.1l5.3-9.2c0.6-1.1,0.3-2.5-0.8-3.1L60.1,32C59.7,31.8,59.3,31.7,58.9,31.7"/>
	<path class="st8" d="M52.7,25.1c-0.4,0-0.8,0.1-1.1,0.3l-9.2,5.3c-1.1,0.6-1.5,2-0.8,3.1l0.4,0.7c0.4,0.7,1.2,1.1,2,1.1
		c0.4,0,0.8-0.1,1.1-0.3l9.2-5.3c1.1-0.6,1.5-2,0.8-3.1l-0.4-0.7C54.2,25.5,53.5,25.1,52.7,25.1"/>
	<path class="st9" d="M50.5,16.3H39.9c-1.3,0-2.3,1-2.3,2.3v0.8c0,1.3,1,2.3,2.3,2.3h10.6c1.3,0,2.3-1,2.3-2.3v-0.8
		C52.8,17.4,51.8,16.3,50.5,16.3"/>
	<path class="st10" d="M43.8,2.3c-0.8,0-1.6,0.4-2,1.1l-0.4,0.7c-0.6,1.1-0.3,2.5,0.8,3.1l9.2,5.3c0.4,0.2,0.8,0.3,1.1,0.3
		c0.8,0,1.6-0.4,2-1.1l0.4-0.7c0.6-1.1,0.3-2.5-0.8-3.1L45,2.6C44.6,2.4,44.2,2.3,43.8,2.3"/>
	<path class="st11" d="M54.3-7.8c-0.4,0-0.8,0.1-1.1,0.3l-0.7,0.4c-1.1,0.6-1.5,2-0.8,3.1L57,5.2c0.4,0.7,1.2,1.1,2,1.1
		c0.4,0,0.8-0.1,1.1-0.3l0.7-0.4c1.1-0.6,1.5-2,0.8-3.1l-5.3-9.2C55.8-7.4,55.1-7.8,54.3-7.8"/>
</g>
</svg>
