<?xml version="1.0" encoding="utf-8"?>
<!-- Generator: Adobe Illustrator 21.0.2, SVG Export Plug-In . SVG Version: 6.00 Build 0)  -->
<svg version="1.1" id="Layer_1" xmlns="http://www.w3.org/2000/svg" xmlns:xlink="http://www.w3.org/1999/xlink" x="0px" y="0px"
	 viewBox="0 0 391 161" style="enable-background:new 0 0 391 161;" xml:space="preserve">
<style type="text/css">
	.st0{fill:#231F20;}
	.st1{fill:#CC0000;}
</style>
<path class="st0" d="M14.3,96.1c0.1,0.5,1.4,2.1,6.9,4.7c3.7,1.8,9,4.2,16,7.1c2.5,1.1,6.6,2.7,12.2,4.8c2.3-0.7,6.4-2.3,12.4-4.8
	l8.5-3.6c4.1-1.7,8.8-3.9,14-6.5c1.6-0.8,2.5-1.4,2.6-1.7V72.9h-1.6c-3.4,0-6.8,0.5-10.2,1.4c-4.8,1.2-7.1,3.2-7.1,5.8v13.2
	c0,0.3-2.6,1.7-7.8,4.1c-2.3,1.1-4.3,2-6.1,2.7l-4.7,2c-0.5-0.2-3.9-1.7-10.3-4.5c-5-2.2-7.5-3.6-7.5-4.2v-13c0-2.6-2.3-4.6-6.9-5.9
	c-3.3-1.2-6.6-1.6-10.2-1.6L14.3,96.1z"/>
<path class="st0" d="M95.8,72.9v30.5c0,2.8,2.2,4.9,6.6,6.4c3.1,1.1,6.4,1.6,9.9,1.6h2.1V81c0-5.4-5.7-8.1-17-8.1H95.8z"/>
<path class="st0" d="M139,72.9c-7.7,0-12.9,1.6-15.6,4.8c-1,1.2-1.5,2.5-1.5,4.1v6.4c0,3,2.2,5.2,6.6,6.6c3.1,1,6.6,1.5,10.3,1.5
	h39.9v7.2h-56.8c0,2.9,2.4,5,7.1,6.5c3.4,1,6.9,1.5,10.6,1.5h39.8c12,0,17.9-2.7,17.9-8.1v-7.6c0-5.1-5.9-7.6-17.8-7.6h-38.6v-7.1
	h56.4c0-5.4-5.9-8.1-17.7-8.1H139V72.9z"/>
<path class="st0" d="M204.9,72.9v30.5c0,2.8,2.2,4.9,6.6,6.4c3.1,1.1,6.4,1.6,10,1.6h2.1V81c0-5.4-5.7-8.1-17-8.1H204.9z"/>
<path class="st0" d="M379.7,111.2h-3.8c-7.6,0-13.5-1.4-17.7-4.1l-19.9-12.9l-7.5-4.8v21.8h-18.7V72.9h3.8c7.7,0,13.6,1.4,17.8,4.1
	l19.9,12.9c0.2,0.2,0.3,0.3,0.5,0.4c3.1,1.9,5.4,3.3,6.9,4.3v-14c0-5.2,5.7-7.7,17.2-7.7h1.5L379.7,111.2L379.7,111.2z"/>
<path class="st0" d="M230.1,90.1v-9.2c0-1.2,0.5-2.2,1.4-3.2c2.7-3.2,7.8-4.7,15.3-4.7h18.6l0,0h5.7l0,0h17.5
	c11.5,0,17.2,2.7,17.2,8.1v9.1v4.6v9.4c0,1.4-0.5,2.6-1.4,3.5c-2.7,2.9-8,4.4-15.9,4.4H271v0.1h-5.7v-0.3h-18.6
	c-3.5,0-6.9-0.5-10-1.5c-4.5-1.5-6.7-3.7-6.7-6.5v-9.2L230.1,90.1L230.1,90.1z M265.4,81.1h-16.5v9v4.6v9.2h16.5h5.7h15.8v-9.2v-4.6
	v-9H271H265.4z"/>
<path class="st0" d="M119,127.6c-4.5,0-6.7,1-6.7,3.1v9h-6.9v-6.1c0-1.8-1.4-2.8-4.1-3.1c-0.8-0.1-1.7-0.1-2.5-0.1h-0.9v9.3H91v-9
	c0-1.8-1.4-2.8-4.1-3.1c-0.6-0.1-1.5-0.1-2.6-0.1h-0.8v12.2c0,2.1,2.2,3.1,6.7,3.1h22.9c4.5,0,6.7-1,6.7-3.1v-12.2L119,127.6
	L119,127.6z"/>
<path class="st0" d="M167.4,127.6v6.1h-15v-6.1h-0.8c-2.9,0-4.9,0.6-6.1,1.9c-0.4,0.4-0.5,0.8-0.5,1.3v9c0,1.1,0.9,2,2.6,2.5
	c1.2,0.4,2.6,0.6,4,0.6h0.8v-6h15v6h0.7c1.6,0,3-0.2,4.1-0.5c1.8-0.6,2.6-1.4,2.6-2.6v-8.9c0-2.2-2.2-3.2-6.7-3.2h-0.7V127.6z"/>
<path class="st0" d="M202.4,127.6c-2.9,0-4.9,0.6-6.1,1.9c-0.4,0.4-0.5,0.8-0.5,1.3v8.9c0,1.1,0.9,2,2.6,2.5c1.3,0.4,2.6,0.6,4,0.6
	h16.5c4.5,0,6.7-1,6.7-3.1h-22.4v-2.8h14.2c5.5,0,8.3-1.1,8.3-3.2h-22.4v-2.8h22.4c0-2.2-2.2-3.2-6.7-3.2h-16.6V127.6z"/>
<path class="st0" d="M253.4,127.6c-2.9,0-4.9,0.6-6.1,1.9c-0.4,0.4-0.5,0.8-0.5,1.3v8.9c0,1.1,0.9,2,2.6,2.5c1.3,0.4,2.6,0.6,4,0.6
	h16.5c4.5,0,6.7-1,6.7-3.1h-22.4v-2.8h14.2c5.5,0,8.3-1.1,8.3-3.2h-22.4v-2.8h22.4c0-2.2-2.2-3.2-6.7-3.2h-16.6V127.6z"/>
<path class="st0" d="M300.1,127.6v12.1c0,1.2,0.9,2.1,2.7,2.6c1.2,0.4,2.6,0.5,4.2,0.5h9.1c4.4,0,6.7-1,6.9-3.1h-15.5v-8.9
	c0-2.2-2.2-3.2-6.7-3.2H300.1z"/>
<path class="st1" d="M226.7,45c0,1.1-0.4,2.1-1.1,2.8c-2.2,2.4-6.5,3.5-12.9,3.5h-14.3v6h-4.6v-6h-15.2c-2.9,0-5.6-0.4-8.2-1.2
	c-3.6-1.2-5.5-3-5.5-5.3v-7.5h-6.2v-3.7h6.2V26c0-0.9,0.4-1.8,1.1-2.6c2.2-2.6,6.4-3.8,12.5-3.8h15.2v-6h4.6v6h14.3
	c9.4,0,14.1,2.2,14.1,6.6v7.4h6.3v3.7h-6.3L226.7,45L226.7,45z M211.3,37.3h-6.2v-3.7h6.2v-7.3h-12.9v4.9h-4.6v-4.9h-13.5v7.3h6.2
	v3.7h-6.2v7.5h13.5V39h4.6v5.9h12.9V37.3z"/>
</svg>
