<?xml version="1.0" encoding="utf-8"?>
<!-- Generator: Adobe Illustrator 18.0.0, SVG Export Plug-In . SVG Version: 6.00 Build 0)  -->
<!DOCTYPE svg [
	<!ENTITY ns_extend "http://ns.adobe.com/Extensibility/1.0/">
	<!ENTITY ns_ai "http://ns.adobe.com/AdobeIllustrator/10.0/">
	<!ENTITY ns_graphs "http://ns.adobe.com/Graphs/1.0/">
	<!ENTITY ns_vars "http://ns.adobe.com/Variables/1.0/">
	<!ENTITY ns_imrep "http://ns.adobe.com/ImageReplacement/1.0/">
	<!ENTITY ns_sfw "http://ns.adobe.com/SaveForWeb/1.0/">
	<!ENTITY ns_custom "http://ns.adobe.com/GenericCustomNamespace/1.0/">
	<!ENTITY ns_adobe_xpath "http://ns.adobe.com/XPath/1.0/">
]>
<svg version="1.2" baseProfile="tiny" id="Layer_1" xmlns:x="&ns_extend;" xmlns:i="&ns_ai;" xmlns:graph="&ns_graphs;"
	 xmlns="http://www.w3.org/2000/svg" xmlns:xlink="http://www.w3.org/1999/xlink" x="0px" y="0px" viewBox="0 0 370 130"
	 xml:space="preserve">
<metadata>
	<sfw  xmlns="&ns_sfw;">
		<slices></slices>
		<sliceSourceBounds  height="129.3" width="365.4" y="-129" x="2.4" bottomLeftOrigin="true"></sliceSourceBounds>
	</sfw>
</metadata>
<path fill="#FFFFFF" d="M2.4,82.2c0.1,0.5,1.4,2.1,6.9,4.7c3.7,1.8,9,4.2,16,7.1c2.5,1.1,6.6,2.7,12.2,4.8c2.3-0.7,6.4-2.3,12.4-4.8
	l8.5-3.6c4.1-1.7,8.8-3.9,14-6.5c1.6-0.8,2.5-1.4,2.6-1.7V59h-1.6c-3.4,0-6.8,0.5-10.2,1.4c-4.8,1.2-7.1,3.2-7.1,5.8v13.2
	c0,0.3-2.6,1.7-7.8,4.1c-2.3,1.1-4.3,2-6.1,2.7l-4.7,2c-0.5-0.2-3.9-1.7-10.3-4.5c-5-2.2-7.5-3.6-7.5-4.2v-13c0-2.6-2.3-4.6-6.9-5.9
	C9.5,59.4,6.2,59,2.6,59L2.4,82.2z"/>
<path fill="#FFFFFF" d="M83.9,59v30.5c0,2.8,2.2,4.9,6.6,6.4c3.1,1.1,6.4,1.6,9.9,1.6h2.1V67.1c0-5.4-5.7-8.1-17-8.1H83.9z"/>
<path fill="#FFFFFF" d="M127.1,59c-7.7,0-12.9,1.6-15.6,4.8c-1,1.2-1.5,2.5-1.5,4.1v6.4c0,3,2.2,5.2,6.6,6.6c3.1,1,6.6,1.5,10.3,1.5
	h39.9v7.2H110c0,2.9,2.4,5,7.1,6.5c3.4,1,6.9,1.5,10.6,1.5h39.8c12,0,17.9-2.7,17.9-8.1v-7.6c0-5.1-5.9-7.6-17.8-7.6h-38.6v-7.1
	h56.4c0-5.4-5.9-8.1-17.7-8.1H127.1z"/>
<path fill="#FFFFFF" d="M193,59v30.5c0,2.8,2.2,4.9,6.6,6.4c3.1,1.1,6.4,1.6,10,1.6h2.1V67.1c0-5.4-5.7-8.1-17-8.1H193z"/>
<path fill="#FFFFFF" d="M367.8,97.3h-3.8c-7.6,0-13.5-1.4-17.7-4.1l-19.9-12.9l-7.5-4.8v21.8h-18.7V59h3.8c7.7,0,13.6,1.4,17.8,4.1
	l19.9,12.9c0.2,0.2,0.3,0.3,0.5,0.4c3.1,1.9,5.4,3.3,6.9,4.3V66.7c0-5.2,5.7-7.7,17.2-7.7h1.5V97.3z"/>
<path fill="#FFFFFF" d="M218.2,76.2V67c0-1.2,0.5-2.2,1.4-3.2c2.7-3.2,7.8-4.7,15.3-4.7h18.6v0h5.7v0h17.5c11.5,0,17.2,2.7,17.2,8.1
	v9.1v4.6v9.4c0,1.4-0.5,2.6-1.4,3.5c-2.7,2.9-8,4.4-15.9,4.4h-17.5v0.1h-5.7V98h-18.6c-3.5,0-6.9-0.5-10-1.5
	c-4.5-1.5-6.7-3.7-6.7-6.5v-9.2V76.2z M253.5,67.2H237v9v4.6v9.2h16.5h5.7H275v-9.2v-4.6v-9h-15.9H253.5z"/>
<path fill="#FFFFFF" d="M107.1,113.7c-4.5,0-6.7,1-6.7,3.1v9h-6.9v-6.1c0-1.8-1.4-2.8-4.1-3.1c-0.8-0.1-1.7-0.1-2.5-0.1H86v9.3h-6.9
	v-9c0-1.8-1.4-2.8-4.1-3.1c-0.6-0.1-1.5-0.1-2.6-0.1h-0.8v12.2c0,2.1,2.2,3.1,6.7,3.1h22.9c4.5,0,6.7-1,6.7-3.1v-12.2H107.1z"/>
<path fill="#FFFFFF" d="M155.5,113.7v6.1h-15v-6.1h-0.8c-2.9,0-4.9,0.6-6.1,1.9c-0.4,0.4-0.5,0.8-0.5,1.3v9c0,1.1,0.9,2,2.6,2.5
	c1.2,0.4,2.6,0.6,4,0.6h0.8v-6h15v6h0.7c1.6,0,3-0.2,4.1-0.5c1.8-0.6,2.6-1.4,2.6-2.6v-8.9c0-2.2-2.2-3.2-6.7-3.2H155.5z"/>
<path fill="#FFFFFF" d="M190.5,113.7c-2.9,0-4.9,0.6-6.1,1.9c-0.4,0.4-0.5,0.8-0.5,1.3v8.9c0,1.1,0.9,2,2.6,2.5
	c1.3,0.4,2.6,0.6,4,0.6h16.5c4.5,0,6.7-1,6.7-3.1h-22.4V123h14.2c5.5,0,8.3-1.1,8.3-3.2h-22.4v-2.8h22.4c0-2.2-2.2-3.2-6.7-3.2
	H190.5z"/>
<path fill="#FFFFFF" d="M241.5,113.7c-2.9,0-4.9,0.6-6.1,1.9c-0.4,0.4-0.5,0.8-0.5,1.3v8.9c0,1.1,0.9,2,2.6,2.5
	c1.3,0.4,2.6,0.6,4,0.6H258c4.5,0,6.7-1,6.7-3.1h-22.4V123h14.2c5.5,0,8.3-1.1,8.3-3.2h-22.4v-2.8h22.4c0-2.2-2.2-3.2-6.7-3.2H241.5
	z"/>
<path fill="#FFFFFF" d="M288.2,113.7v12.1c0,1.2,0.9,2.1,2.7,2.6c1.2,0.4,2.6,0.5,4.2,0.5h9.1c4.4,0,6.7-1,6.9-3.1h-15.5v-8.9
	c0-2.2-2.2-3.2-6.7-3.2H288.2z"/>
<path fill="#CC0000" d="M214.8,31c0,1.1-0.4,2.1-1.1,2.8c-2.2,2.4-6.5,3.5-12.9,3.5h-14.3v6h-4.6v-6h-15.2c-2.9,0-5.6-0.4-8.2-1.2
	c-3.6-1.2-5.5-3-5.5-5.3v-7.5h-6.2v-3.7h6.2v-7.5c0-0.9,0.4-1.8,1.1-2.6c2.2-2.6,6.4-3.8,12.5-3.8h15.2v-6h4.6v6h14.3
	c9.4,0,14.1,2.2,14.1,6.6v7.4h6.3v3.7h-6.3V31z M199.4,23.4h-6.2v-3.7h6.2v-7.3h-12.9v4.9h-4.6v-4.9h-13.5v7.3h6.2v3.7h-6.2v7.5
	h13.5V25h4.6v5.9h12.9V23.4z"/>
</svg>
