<?xml version="1.0" encoding="utf-8"?>
<!-- Generator: Adobe Illustrator 18.0.0, SVG Export Plug-In . SVG Version: 6.00 Build 0)  -->

<svg version="1.2" baseProfile="tiny" id="Layer_1"
	 xmlns="http://www.w3.org/2000/svg" xmlns:xlink="http://www.w3.org/1999/xlink" x="0px" y="0px" viewBox="0 0 100 30"
	 xml:space="preserve">

<path fill="#333333" d="M17.4,9.9c-0.8,0-1.6,0.1-2.4,0.3c-1.1,0.3-1.7,0.7-1.7,1.3v3.1c0,0.1-0.6,0.4-1.8,0.9
	c-0.5,0.3-1,0.5-1.4,0.6l-1.1,0.4c-0.1,0-0.9-0.4-2.4-1c-1.2-0.5-1.7-0.8-1.7-1v-3c0-0.6-0.5-1.1-1.6-1.4C2.6,10,1.8,9.9,1,9.9H0.6
	v5.4c0,0.1,0.7,0.5,1.9,1.1c0.9,0.4,2.1,1,3.7,1.7c0.6,0.3,1.5,0.6,2.8,1.1c0.5-0.2,1.5-0.5,2.9-1.1l2-0.8c0.9-0.4,2-0.9,3.3-1.5
	c0.4-0.2,0.6-0.3,0.6-0.4V9.9L17.4,9.9L17.4,9.9z"/>
<path fill="#333333" d="M19.5,9.9V17c0,0.7,0.5,1.1,1.5,1.5c0.7,0.3,1.5,0.4,2.3,0.4h0.5v-7.1c0-1.3-1.3-1.9-3.9-1.9
	C19.9,9.9,19.5,9.9,19.5,9.9z"/>
<path fill="#333333" d="M29.5,9.9c-1.8,0-3,0.4-3.6,1.1c-0.2,0.3-0.4,0.6-0.4,0.9v1.5c0,0.7,0.5,1.2,1.5,1.5
	c0.7,0.2,1.5,0.4,2.4,0.4h9.3v1.7H25.6c0,0.7,0.6,1.2,1.7,1.5c0.8,0.2,1.6,0.4,2.5,0.4h9.2c2.8,0,4.2-0.6,4.2-1.9v-1.8
	c0-1.2-1.4-1.8-4.1-1.8h-9v-1.7h13.1c0-1.3-1.4-1.9-4.1-1.9C39,9.9,29.5,9.9,29.5,9.9z"/>
<path fill="#333333" d="M44.8,9.9V17c0,0.7,0.5,1.1,1.5,1.5c0.7,0.3,1.5,0.4,2.3,0.4h0.5v-7.1c0-1.3-1.3-1.9-3.9-1.9
	C45.2,9.9,44.8,9.9,44.8,9.9z"/>
<path fill="#333333" d="M95.6,9.9c-2.7,0-4,0.6-4,1.8V15c-0.4-0.2-0.9-0.6-1.6-1c0,0-0.1-0.1-0.1-0.1l-4.6-3c-1-0.6-2.3-0.9-4.1-0.9
	h-0.9v8.9h4.3v-5.1l1.7,1.1l4.6,3c1,0.6,2.3,0.9,4.1,0.9h0.9v-2.1l-1.1,0.6v-6l1.1,0.6V9.9H95.6z"/>
<polygon fill="#BE1E2D" points="100,14.4 95.9,12 95.9,16.7 "/>
<path fill="#333333" d="M51.1,14.4C53.4,9.7,59.6,6.3,65,7c4.4,0.5,8.3,3.7,10.2,7.4c-2.2,4.3-6.3,9.3-10.2,9.3
	c4.9,0,11.3-4.1,13.9-9.3c-2.5-5-8.2-9.3-13.9-9.3C59.3,5.1,53.6,9.4,51.1,14.4"/>
<path fill="#BE1E2D" d="M69.9,16.7c0,0.3-0.1,0.5-0.3,0.6c-0.5,0.5-1.5,0.8-2.9,0.8h-3.2v1.3h-1v-1.3h-3.4c-0.7,0-1.3-0.1-1.8-0.3
	c-0.8-0.3-1.2-0.7-1.2-1.2V15h-1.4v-0.9h1.4v-1.7c0-0.2,0.1-0.4,0.3-0.6c0.5-0.6,1.4-0.9,2.8-0.9h3.4V9.7h1V11h3.2
	c2.1,0,3.2,0.5,3.2,1.5v1.7h1.4V15H70L69.9,16.7L69.9,16.7z M66.5,15h-1.4v-0.9h1.4v-1.6h-2.9v1.1h-1v-1.1h-3v1.6h1.4V15h-1.4v1.7h3
	v-1.3h1v1.3h2.9L66.5,15L66.5,15z"/>
<path fill="#333333" d="M79,21.6c-0.7,0-1.1,0.2-1.1,0.5v1.5h-1.1v-1c0-0.3-0.2-0.5-0.7-0.5c-0.1,0-0.3,0-0.4,0h-0.2v1.5h-1.1v-1.5
	c0-0.3-0.2-0.5-0.7-0.5c-0.1,0-0.3,0-0.4,0h-0.1v2c0,0.4,0.4,0.5,1.1,0.5h3.8c0.7,0,1.1-0.2,1.1-0.5v-2C79.2,21.6,79,21.6,79,21.6z"
	/>
<path fill="#333333" d="M83.4,21.6v1h-2.5v-1h-0.1c-0.5,0-0.8,0.1-1,0.3c-0.1,0.1-0.1,0.1-0.1,0.2v1.5c0,0.2,0.2,0.3,0.4,0.4
	c0.2,0.1,0.4,0.1,0.7,0.1h0.1v-1h2.5v1h0.1c0.3,0,0.5,0,0.7-0.1c0.3-0.1,0.4-0.2,0.4-0.4v-1.5C84.6,21.8,84.2,21.6,83.4,21.6
	L83.4,21.6L83.4,21.6z"/>
<path fill="#333333" d="M86.2,21.6c-0.5,0-0.8,0.1-1,0.3c-0.1,0.1-0.1,0.1-0.1,0.2v1.5c0,0.2,0.2,0.3,0.4,0.4
	c0.2,0.1,0.4,0.1,0.7,0.1h2.7c0.8,0,1.1-0.2,1.1-0.5h-3.7v-0.5h2.3c0.9,0,1.4-0.2,1.4-0.5h-3.7v-0.5H90c0-0.4-0.4-0.5-1.1-0.5
	L86.2,21.6L86.2,21.6z"/>
<path fill="#333333" d="M91.6,21.6c-0.5,0-0.8,0.1-1,0.3c-0.1,0.1-0.1,0.1-0.1,0.2v1.5c0,0.2,0.2,0.3,0.4,0.4
	c0.2,0.1,0.4,0.1,0.7,0.1h2.7c0.8,0,1.1-0.2,1.1-0.5h-3.7v-0.5h2.3c0.9,0,1.4-0.2,1.4-0.5h-3.7v-0.5h3.7c0-0.4-0.4-0.5-1.1-0.5
	L91.6,21.6L91.6,21.6z"/>
<path fill="#333333" d="M96,21.6v2c0,0.2,0.2,0.4,0.5,0.4c0.2,0.1,0.4,0.1,0.7,0.1h1.5c0.7,0,1.1-0.2,1.1-0.5h-2.6v-1.5
	c0-0.4-0.4-0.5-1.1-0.5L96,21.6C96,21.6,96,21.6,96,21.6z"/>
</svg>
