<?xml version="1.0" encoding="utf-8"?>
<!-- Generator: Adobe Illustrator 18.1.1, SVG Export Plug-In . SVG Version: 6.00 Build 0)  -->
<!DOCTYPE svg PUBLIC "-//W3C//DTD SVG 1.1//EN" "http://www.w3.org/Graphics/SVG/1.1/DTD/svg11.dtd">
<svg version="1.1" id="Layer_1" xmlns="http://www.w3.org/2000/svg" xmlns:xlink="http://www.w3.org/1999/xlink" x="0px" y="0px"
	 width="265.1px" height="50.7px" viewBox="74.8 13.6 265.1 50.7" enable-background="new 74.8 13.6 265.1 50.7"
	 xml:space="preserve">
<path fill="#333333" d="M119.6,26.4c-2.1,0-4.3,0.3-6.4,0.8c-2.9,0.8-4.5,1.9-4.5,3.5v8.3c0,0.3-1.6,1.1-4.8,2.4
	c-1.3,0.8-2.7,1.3-3.7,1.6L97.2,44c-0.3,0-2.4-1.1-6.4-2.7c-3.2-1.3-4.5-2.1-4.5-2.7v-8c0-1.6-1.3-2.9-4.3-3.7
	c-1.9-0.3-4-0.5-6.1-0.5h-1.1v14.4c0,0.3,1.9,1.3,5.1,2.9c2.4,1.1,5.6,2.7,9.9,4.5c1.6,0.8,4,1.6,7.5,2.9c1.3-0.5,4-1.3,7.7-2.9
	l5.3-2.1c2.4-1.1,5.3-2.4,8.8-4c1.1-0.5,1.6-0.8,1.6-1.1V26.4H119.6L119.6,26.4z"/>
<path fill="#333333" d="M125.2,26.4v18.9c0,1.9,1.3,2.9,4,4c1.9,0.8,4,1.1,6.1,1.1h1.3V31.5c0-3.5-3.5-5.1-10.4-5.1H125.2z"/>
<path fill="#333333" d="M151.8,26.4c-4.8,0-8,1.1-9.6,2.9c-0.5,0.8-1.1,1.6-1.1,2.4v4c0,1.9,1.3,3.2,4,4c1.9,0.5,4,1.1,6.4,1.1h24.8
	v4.5h-34.9c0,1.9,1.6,3.2,4.5,4c2.1,0.5,4.3,1.1,6.7,1.1h24.5c7.5,0,11.2-1.6,11.2-5.1v-4.8c0-3.2-3.7-4.8-10.9-4.8h-24v-4.5h34.9
	c0-3.5-3.7-5.1-10.9-5.1C177.2,26.4,151.8,26.4,151.8,26.4z"/>
<path fill="#333333" d="M192.6,26.4v18.9c0,1.9,1.3,2.9,4,4c1.9,0.8,4,1.1,6.1,1.1h1.3V31.5c0-3.5-3.5-5.1-10.4-5.1
	C193.7,26.4,192.6,26.4,192.6,26.4z"/>
<path fill="#333333" d="M328.1,26.4c-7.2,0-10.7,1.6-10.7,4.8V40c-1.1-0.5-2.4-1.6-4.3-2.7l-0.3-0.3l-12.3-8
	c-2.7-1.6-6.1-2.4-10.9-2.4h-2.4v23.7h11.5V36.8l4.5,2.9l12.3,8c2.7,1.6,6.1,2.4,10.9,2.4h2.4v-5.6l-2.9,1.6v-16l2.9,1.6v-5.3H328.1
	z"/>
<polygon fill="#BE1E2D" points="339.8,38.4 328.9,32 328.9,44.5 "/>
<path fill="#333333" d="M209.4,38.4c6.1-12.5,22.7-21.6,37.1-19.7c11.7,1.3,22.1,9.9,27.2,19.7c-5.9,11.5-16.8,24.8-27.2,24.8
	c13.1,0,30.1-10.9,37.1-24.8c-6.7-13.3-21.9-24.8-37.1-24.8C231.3,13.6,216.1,25.1,209.4,38.4"/>
<path fill="#BE1E2D" d="M259.6,44.5c0,0.8-0.3,1.3-0.8,1.6c-1.3,1.3-4,2.1-7.7,2.1h-8.5v3.5h-2.7v-3.5h-9.1c-1.9,0-3.5-0.3-4.8-0.8
	c-2.1-0.8-3.2-1.9-3.2-3.2V40H219v-2.4h3.7v-4.5c0-0.5,0.3-1.1,0.8-1.6c1.3-1.6,3.7-2.4,7.5-2.4h9.1v-3.2h2.7v3.5h8.5
	c5.6,0,8.5,1.3,8.5,4v4.5h3.7V40h-3.7L259.6,44.5L259.6,44.5z M250.5,40h-3.7v-2.4h3.7v-4.3h-7.7v2.9h-2.7v-2.9h-8v4.3h3.7V40h-3.7
	v4.5h8v-3.5h2.7v3.5h7.7V40L250.5,40z"/>
<text transform="matrix(1 0 0 1 331.0365 50.0518)" fill="#333333" font-family="'Helvetica-Bold'" font-size="3.5048">TM</text>
<path fill="#333333" d="M283.8,57.6c-1.9,0-2.9,0.5-2.9,1.3v4H278v-2.7c0-0.8-0.5-1.3-1.9-1.3c-0.3,0-0.8,0-1.1,0h-0.5v4h-2.9v-4
	c0-0.8-0.5-1.3-1.9-1.3c-0.3,0-0.8,0-1.1,0h-0.3v5.3c0,1.1,1.1,1.3,2.9,1.3h10.1c1.9,0,2.9-0.5,2.9-1.3v-5.3
	C284.4,57.6,283.8,57.6,283.8,57.6z"/>
<path fill="#333333" d="M295.6,57.6v2.7h-6.7v-2.7h-0.3c-1.3,0-2.1,0.3-2.7,0.8c-0.3,0.3-0.3,0.3-0.3,0.5v4c0,0.5,0.5,0.8,1.1,1.1
	c0.5,0.3,1.1,0.3,1.9,0.3h0.3v-2.7h6.7v2.7h0.3c0.8,0,1.3,0,1.9-0.3c0.8-0.3,1.1-0.5,1.1-1.1v-4C298.8,58.1,297.7,57.6,295.6,57.6
	L295.6,57.6L295.6,57.6z"/>
<path fill="#333333" d="M303,57.6c-1.3,0-2.1,0.3-2.7,0.8c-0.3,0.3-0.3,0.3-0.3,0.5v4c0,0.5,0.5,0.8,1.1,1.1
	c0.5,0.3,1.1,0.3,1.9,0.3h7.2c2.1,0,2.9-0.5,2.9-1.3h-9.9v-1.3h6.1c2.4,0,3.7-0.5,3.7-1.3h-9.9v-1.3h9.9c0-1.1-1.1-1.3-2.9-1.3H303
	L303,57.6z"/>
<path fill="#333333" d="M317.4,57.6c-1.3,0-2.1,0.3-2.7,0.8c-0.3,0.3-0.3,0.3-0.3,0.5v4c0,0.5,0.5,0.8,1.1,1.1
	c0.5,0.3,1.1,0.3,1.9,0.3h7.2c2.1,0,2.9-0.5,2.9-1.3h-9.9v-1.3h6.1c2.4,0,3.7-0.5,3.7-1.3h-9.9v-1.3h9.9c0-1.1-1.1-1.3-2.9-1.3
	H317.4L317.4,57.6z"/>
<path fill="#333333" d="M329.2,57.6v5.3c0,0.5,0.5,1.1,1.3,1.1c0.5,0.3,1.1,0.3,1.9,0.3h4c1.9,0,2.9-0.5,2.9-1.3h-6.9v-4
	c0-1.1-1.1-1.3-2.9-1.3H329.2L329.2,57.6z"/>
</svg>
